<svg width="44" height="44" viewBox="0 0 44 44" fill="none" xmlns="http://www.w3.org/2000/svg">
<path d="M12.8385 16.5003C12.8385 17.5129 12.0177 18.3337 11.0052 18.3337C9.9927 18.3337 9.17188 17.5129 9.17188 16.5003C9.17188 15.4878 9.9927 14.667 11.0052 14.667C12.0177 14.667 12.8385 15.4878 12.8385 16.5003Z" fill="#969696"/>
<path d="M12.8385 22.0003C12.8385 23.0129 12.0177 23.8337 11.0052 23.8337C9.9927 23.8337 9.17188 23.0129 9.17188 22.0003C9.17188 20.9878 9.9927 20.167 11.0052 20.167C12.0177 20.167 12.8385 20.9878 12.8385 22.0003Z" fill="#969696"/>
<path d="M18.3385 22.0003C18.3385 23.0129 17.5177 23.8337 16.5052 23.8337C15.4927 23.8337 14.6719 23.0129 14.6719 22.0003C14.6719 20.9878 15.4927 20.167 16.5052 20.167C17.5177 20.167 18.3385 20.9878 18.3385 22.0003Z" fill="#969696"/>
<path d="M18.3385 16.5003C18.3385 17.5129 17.5177 18.3337 16.5052 18.3337C15.4927 18.3337 14.6719 17.5129 14.6719 16.5003C14.6719 15.4878 15.4927 14.667 16.5052 14.667C17.5177 14.667 18.3385 15.4878 18.3385 16.5003Z" fill="#969696"/>
<path d="M23.8385 16.5003C23.8385 17.5129 23.0178 18.3337 22.0052 18.3337C20.9927 18.3337 20.1719 17.5129 20.1719 16.5003C20.1719 15.4878 20.9927 14.667 22.0052 14.667C23.0178 14.667 23.8385 15.4878 23.8385 16.5003Z" fill="#969696"/>
<path d="M23.8385 22.0003C23.8385 23.0129 23.0178 23.8337 22.0052 23.8337C20.9927 23.8337 20.1719 23.0129 20.1719 22.0003C20.1719 20.9878 20.9927 20.167 22.0052 20.167C23.0178 20.167 23.8385 20.9878 23.8385 22.0003Z" fill="#969696"/>
<path d="M29.3385 16.5003C29.3385 17.5129 28.5178 18.3337 27.5052 18.3337C26.4927 18.3337 25.6719 17.5129 25.6719 16.5003C25.6719 15.4878 26.4927 14.667 27.5052 14.667C28.5178 14.667 29.3385 15.4878 29.3385 16.5003Z" fill="#969696"/>
<path d="M29.3385 22.0003C29.3385 23.0129 28.5178 23.8337 27.5052 23.8337C26.4927 23.8337 25.6719 23.0129 25.6719 22.0003C25.6719 20.9878 26.4927 20.167 27.5052 20.167C28.5178 20.167 29.3385 20.9878 29.3385 22.0003Z" fill="#969696"/>
<path d="M34.8385 16.5003C34.8385 17.5129 34.0178 18.3337 33.0052 18.3337C31.9927 18.3337 31.1719 17.5129 31.1719 16.5003C31.1719 15.4878 31.9927 14.667 33.0052 14.667C34.0178 14.667 34.8385 15.4878 34.8385 16.5003Z" fill="#969696"/>
<path d="M34.8385 22.0003C34.8385 23.0129 34.0178 23.8337 33.0052 23.8337C31.9927 23.8337 31.1719 23.0129 31.1719 22.0003C31.1719 20.9878 31.9927 20.167 33.0052 20.167C34.0178 20.167 34.8385 20.9878 34.8385 22.0003Z" fill="#969696"/>
<path fill-rule="evenodd" clip-rule="evenodd" d="M14.5713 7.79199H29.4392C31.9465 7.79196 33.9673 7.79192 35.5568 8.00561C37.207 8.22748 38.5963 8.70211 39.7 9.80563C40.8035 10.9092 41.2781 12.2986 41.5 13.9488C41.7135 15.5382 41.7135 17.5591 41.7135 20.0663V23.9343C41.7135 26.4416 41.7135 28.4625 41.5 30.052C41.2781 31.7021 40.8035 33.0914 39.7 34.1951C38.5963 35.2986 37.207 35.7732 35.5568 35.9951C33.9673 36.2087 31.9465 36.2087 29.4392 36.2087H14.5713C12.064 36.2087 10.0431 36.2087 8.45367 35.9951C6.80347 35.7732 5.41404 35.2986 4.31052 34.1951C3.207 33.0914 2.73237 31.7021 2.5105 30.052C2.2968 28.4625 2.29684 26.4416 2.29688 23.9343V20.0663C2.29684 17.5591 2.2968 15.5382 2.5105 13.9488C2.73237 12.2986 3.207 10.9092 4.31052 9.80563C5.41404 8.70211 6.80347 8.22748 8.45367 8.00561C10.0431 7.79192 12.064 7.79196 14.5713 7.79199ZM8.8201 10.7311C7.47485 10.912 6.76245 11.2428 6.25506 11.7502C5.74767 12.2576 5.41684 12.97 5.23598 14.3152C5.04979 15.7 5.04688 17.5354 5.04688 20.167V23.8337C5.04688 26.4652 5.04979 28.3006 5.23598 29.6855C5.41684 31.0308 5.74767 31.743 6.25506 32.2505C6.76245 32.758 7.47485 33.0887 8.8201 33.2696C10.2049 33.4557 12.0403 33.4587 14.6719 33.4587H29.3385C31.9701 33.4587 33.8055 33.4557 35.1904 33.2696C36.5357 33.0887 37.2479 32.758 37.7554 32.2505C38.2628 31.743 38.5936 31.0308 38.7745 29.6855C38.9606 28.3006 38.9635 26.4652 38.9635 23.8337V20.167C38.9635 17.5354 38.9606 15.7 38.7745 14.3152C38.5936 12.97 38.2628 12.2576 37.7554 11.7502C37.2479 11.2428 36.5357 10.912 35.1904 10.7311C33.8055 10.5449 31.9701 10.542 29.3385 10.542H14.6719C12.0403 10.542 10.2049 10.5449 8.8201 10.7311ZM11.4635 29.3337C11.4635 28.5743 12.0792 27.9587 12.8385 27.9587H31.1719C31.9312 27.9587 32.5469 28.5743 32.5469 29.3337C32.5469 30.093 31.9312 30.7087 31.1719 30.7087H12.8385C12.0792 30.7087 11.4635 30.093 11.4635 29.3337Z" fill="#969696"/>
</svg>
