<svg width="28" height="31" viewBox="0 0 28 31" fill="none" xmlns="http://www.w3.org/2000/svg">
<rect width="28" height="30.5455" rx="6.36364" transform="matrix(-1 0 0 1 28 0)" fill="#5A5A5A"/>
<rect x="-0.636364" y="0.636364" width="26.7273" height="26.7273" rx="5.72727" transform="matrix(-1 0 0 1 26.7273 0)" fill="#232323" stroke="#9D9D9D" stroke-width="1.27273"/>
<path d="M11.8299 9.16029C11.4936 8.82548 10.9485 8.82548 10.6122 9.16029C10.276 9.49512 10.276 10.038 10.6122 10.3728L14.468 14.2123L10.6122 18.0516C10.276 18.3865 10.276 18.9293 10.6122 19.2641C10.9485 19.599 11.4937 19.599 11.83 19.2641L16.2819 14.831C16.2862 14.8269 16.2904 14.8228 16.2946 14.8186C16.4049 14.7088 16.4791 14.5765 16.517 14.4365C16.5179 14.4331 16.5188 14.4297 16.5197 14.4262C16.593 14.1423 16.518 13.8282 16.2947 13.6058C16.2892 13.6002 16.2836 13.5949 16.278 13.5895L11.8299 9.16029Z" fill="#969696"/>
</svg>
