<svg width="28" height="31" viewBox="0 0 28 31" fill="none" xmlns="http://www.w3.org/2000/svg">
<rect width="28" height="30.5455" rx="6.36364" fill="#5A5A5A"/>
<rect x="0.636364" y="0.636364" width="26.7273" height="26.7273" rx="5.72727" fill="#232323" stroke="#9D9D9D" stroke-width="1.27273"/>
<path d="M16.1701 9.16029C16.5064 8.82548 17.0515 8.82548 17.3878 9.16029C17.724 9.49512 17.724 10.038 17.3878 10.3728L13.532 14.2123L17.3878 18.0516C17.724 18.3865 17.724 18.9293 17.3878 19.2641C17.0515 19.599 16.5063 19.599 16.17 19.2641L11.7181 14.831C11.7138 14.8269 11.7096 14.8228 11.7054 14.8186C11.5951 14.7088 11.5209 14.5765 11.483 14.4365C11.4821 14.4331 11.4812 14.4297 11.4803 14.4262C11.407 14.1423 11.482 13.8282 11.7053 13.6058C11.7108 13.6002 11.7164 13.5949 11.722 13.5895L16.1701 9.16029Z" fill="#969696"/>
</svg>
