<svg width="19" height="20" viewBox="0 0 19 20" fill="none" xmlns="http://www.w3.org/2000/svg">
<path fill-rule="evenodd" clip-rule="evenodd" d="M6.53206 3.46875H15.4383C15.5958 3.46875 15.7468 3.53131 15.8582 3.64266C15.9695 3.75401 16.0321 3.90503 16.0321 4.0625V12.9688C16.0321 13.1262 15.9695 13.2772 15.8582 13.3886C15.7468 13.4999 15.5958 13.5625 15.4383 13.5625C15.2808 13.5625 15.1298 13.4999 15.0185 13.3886C14.9071 13.2772 14.8446 13.1262 14.8446 12.9688V5.49542L3.9829 16.3571C3.87034 16.462 3.72147 16.5191 3.56765 16.5163C3.41383 16.5136 3.26707 16.4513 3.15828 16.3425C3.0495 16.2337 2.98718 16.087 2.98447 15.9332C2.98175 15.7793 3.03885 15.6305 3.14373 15.5179L14.0054 4.65625H6.53206C6.37459 4.65625 6.22357 4.59369 6.11222 4.48234C6.00087 4.371 5.93831 4.21997 5.93831 4.0625C5.93831 3.90503 6.00087 3.75401 6.11222 3.64266C6.22357 3.53131 6.37459 3.46875 6.53206 3.46875Z" fill="white"/>
</svg>
